<svg width="40" height="40" viewBox="0 0 40 40" fill="none" xmlns="http://www.w3.org/2000/svg">
<rect x="0.5" y="0.5" width="39" height="39" rx="5.5" fill="#F8FDE7"/>
<rect x="0.5" y="0.5" width="39" height="39" rx="5.5" stroke="#F8FDE7"/>
<path d="M13.3125 24.7064L16.8625 21.1564C17.0625 20.9564 17.2959 20.8606 17.5625 20.8689C17.8292 20.8772 18.0625 20.9814 18.2625 21.1814C18.4459 21.3814 18.5375 21.6147 18.5375 21.8814C18.5375 22.1481 18.4459 22.3814 18.2625 22.5814L14.0375 26.8314C13.8375 27.0314 13.6042 27.1314 13.3375 27.1314C13.0709 27.1314 12.8375 27.0314 12.6375 26.8314L10.4875 24.6814C10.3042 24.4981 10.2125 24.2647 10.2125 23.9814C10.2125 23.6981 10.3042 23.4647 10.4875 23.2814C10.6709 23.0981 10.9042 23.0064 11.1875 23.0064C11.4709 23.0064 11.7042 23.0981 11.8875 23.2814L13.3125 24.7064ZM13.3125 16.7064L16.8625 13.1564C17.0625 12.9564 17.2959 12.8606 17.5625 12.8689C17.8292 12.8772 18.0625 12.9814 18.2625 13.1814C18.4459 13.3814 18.5375 13.6147 18.5375 13.8814C18.5375 14.1481 18.4459 14.3814 18.2625 14.5814L14.0375 18.8314C13.8375 19.0314 13.6042 19.1314 13.3375 19.1314C13.0709 19.1314 12.8375 19.0314 12.6375 18.8314L10.4875 16.6814C10.3042 16.4981 10.2125 16.2647 10.2125 15.9814C10.2125 15.6981 10.3042 15.4647 10.4875 15.2814C10.6709 15.0981 10.9042 15.0064 11.1875 15.0064C11.4709 15.0064 11.7042 15.0981 11.8875 15.2814L13.3125 16.7064ZM21.7875 25.5314C21.5042 25.5314 21.2667 25.4356 21.075 25.2439C20.8834 25.0522 20.7875 24.8147 20.7875 24.5314C20.7875 24.2481 20.8834 24.0106 21.075 23.8189C21.2667 23.6272 21.5042 23.5314 21.7875 23.5314H28.7875C29.0709 23.5314 29.3084 23.6272 29.5 23.8189C29.6917 24.0106 29.7875 24.2481 29.7875 24.5314C29.7875 24.8147 29.6917 25.0522 29.5 25.2439C29.3084 25.4356 29.0709 25.5314 28.7875 25.5314H21.7875ZM21.7875 17.5314C21.5042 17.5314 21.2667 17.4356 21.075 17.2439C20.8834 17.0522 20.7875 16.8147 20.7875 16.5314C20.7875 16.2481 20.8834 16.0106 21.075 15.8189C21.2667 15.6272 21.5042 15.5314 21.7875 15.5314H28.7875C29.0709 15.5314 29.3084 15.6272 29.5 15.8189C29.6917 16.0106 29.7875 16.2481 29.7875 16.5314C29.7875 16.8147 29.6917 17.0522 29.5 17.2439C29.3084 17.4356 29.0709 17.5314 28.7875 17.5314H21.7875Z" fill="#6D8D0C"/>
</svg>
