<svg width="20" height="20" viewBox="0 0 20 20" fill="none" xmlns="http://www.w3.org/2000/svg">
<path d="M3.31252 14.7064L6.86252 11.1564C7.06252 10.9564 7.29586 10.8606 7.56252 10.8689C7.82919 10.8772 8.06252 10.9814 8.26252 11.1814C8.44586 11.3814 8.53752 11.6147 8.53752 11.8814C8.53752 12.1481 8.44586 12.3814 8.26252 12.5814L4.03752 16.8314C3.83752 17.0314 3.60419 17.1314 3.33752 17.1314C3.07086 17.1314 2.83752 17.0314 2.63752 16.8314L0.487524 14.6814C0.304191 14.4981 0.212524 14.2647 0.212524 13.9814C0.212524 13.6981 0.304191 13.4647 0.487524 13.2814C0.670858 13.0981 0.904191 13.0064 1.18752 13.0064C1.47086 13.0064 1.70419 13.0981 1.88752 13.2814L3.31252 14.7064ZM3.31252 6.70641L6.86252 3.15641C7.06252 2.95641 7.29586 2.86057 7.56252 2.86891C7.82919 2.87724 8.06252 2.98141 8.26252 3.18141C8.44586 3.38141 8.53752 3.61474 8.53752 3.88141C8.53752 4.14807 8.44586 4.38141 8.26252 4.58141L4.03752 8.83141C3.83752 9.03141 3.60419 9.13141 3.33752 9.13141C3.07086 9.13141 2.83752 9.03141 2.63752 8.83141L0.487524 6.68141C0.304191 6.49808 0.212524 6.26474 0.212524 5.98141C0.212524 5.69807 0.304191 5.46474 0.487524 5.28141C0.670858 5.09807 0.904191 5.00641 1.18752 5.00641C1.47086 5.00641 1.70419 5.09807 1.88752 5.28141L3.31252 6.70641ZM11.7875 15.5314C11.5042 15.5314 11.2667 15.4356 11.075 15.2439C10.8834 15.0522 10.7875 14.8147 10.7875 14.5314C10.7875 14.2481 10.8834 14.0106 11.075 13.8189C11.2667 13.6272 11.5042 13.5314 11.7875 13.5314H18.7875C19.0709 13.5314 19.3084 13.6272 19.5 13.8189C19.6917 14.0106 19.7875 14.2481 19.7875 14.5314C19.7875 14.8147 19.6917 15.0522 19.5 15.2439C19.3084 15.4356 19.0709 15.5314 18.7875 15.5314H11.7875ZM11.7875 7.53141C11.5042 7.53141 11.2667 7.43558 11.075 7.24391C10.8834 7.05224 10.7875 6.81474 10.7875 6.53141C10.7875 6.24808 10.8834 6.01057 11.075 5.81891C11.2667 5.62724 11.5042 5.53141 11.7875 5.53141H18.7875C19.0709 5.53141 19.3084 5.62724 19.5 5.81891C19.6917 6.01057 19.7875 6.24808 19.7875 6.53141C19.7875 6.81474 19.6917 7.05224 19.5 7.24391C19.3084 7.43558 19.0709 7.53141 18.7875 7.53141H11.7875Z" fill="#595959"/>
</svg>
