<svg width="20" height="20" viewBox="0 0 20 20" fill="none" xmlns="http://www.w3.org/2000/svg">
<path d="M3.86248 15.1703C3.54331 15.1703 3.27389 15.0606 3.05423 14.8411C2.83473 14.6216 2.72498 14.3522 2.72498 14.0328V5.96709C2.72498 5.64792 2.83473 5.37859 3.05423 5.15909C3.27389 4.93942 3.54331 4.82959 3.86248 4.82959C4.18164 4.82959 4.45106 4.93942 4.67073 5.15909C4.89023 5.37859 4.99998 5.64792 4.99998 5.96709V8.85959H8.72498V5.96709C8.72498 5.64792 8.83473 5.37859 9.05423 5.15909C9.27389 4.93942 9.54331 4.82959 9.86248 4.82959C10.1816 4.82959 10.4511 4.93942 10.6707 5.15909C10.8902 5.37859 11 5.64792 11 5.96709V14.0328C11 14.3522 10.8902 14.6216 10.6707 14.8411C10.4511 15.0606 10.1816 15.1703 9.86248 15.1703C9.54331 15.1703 9.27389 15.0606 9.05423 14.8411C8.83473 14.6216 8.72498 14.3522 8.72498 14.0328V11.1346H4.99998V14.0328C4.99998 14.3522 4.89023 14.6216 4.67073 14.8411C4.45106 15.0606 4.18164 15.1703 3.86248 15.1703ZM16.1375 15.1703C15.8183 15.1703 15.5489 15.0606 15.3292 14.8411C15.1097 14.6216 15 14.3522 15 14.0328V7.10459H14.1375C13.8183 7.10459 13.5489 6.99484 13.3292 6.77534C13.1097 6.55584 13 6.28642 13 5.96709C13 5.64792 13.1097 5.37859 13.3292 5.15909C13.5489 4.93942 13.8183 4.82959 14.1375 4.82959H16.1375C16.4566 4.82959 16.7261 4.93942 16.9457 5.15909C17.1652 5.37859 17.275 5.64792 17.275 5.96709V14.0328C17.275 14.3522 17.1652 14.6216 16.9457 14.8411C16.7261 15.0606 16.4566 15.1703 16.1375 15.1703Z" fill="#5F6368"/>
</svg>
