<svg width="40" height="40" viewBox="0 0 40 40" fill="none" xmlns="http://www.w3.org/2000/svg">
<rect x="0.5" y="0.5" width="39" height="39" rx="5.5" fill="#F8FDE7"/>
<rect x="0.5" y="0.5" width="39" height="39" rx="5.5" stroke="#F8FDE7"/>
<path d="M14 25C13.7167 25 13.4792 24.9042 13.2875 24.7125C13.0958 24.5208 13 24.2833 13 24V16C13 15.7167 13.0958 15.4792 13.2875 15.2875C13.4792 15.0958 13.7167 15 14 15C14.2833 15 14.5208 15.0958 14.7125 15.2875C14.9042 15.4792 15 15.7167 15 16V19H19V16C19 15.7167 19.0958 15.4792 19.2875 15.2875C19.4792 15.0958 19.7167 15 20 15C20.2833 15 20.5208 15.0958 20.7125 15.2875C20.9042 15.4792 21 15.7167 21 16V24C21 24.2833 20.9042 24.5208 20.7125 24.7125C20.5208 24.9042 20.2833 25 20 25C19.7167 25 19.4792 24.9042 19.2875 24.7125C19.0958 24.5208 19 24.2833 19 24V21H15V24C15 24.2833 14.9042 24.5208 14.7125 24.7125C14.5208 24.9042 14.2833 25 14 25ZM26 25C25.7167 25 25.4792 24.9042 25.2875 24.7125C25.0958 24.5208 25 24.2833 25 24V17H24C23.7167 17 23.4792 16.9042 23.2875 16.7125C23.0958 16.5208 23 16.2833 23 16C23 15.7167 23.0958 15.4792 23.2875 15.2875C23.4792 15.0958 23.7167 15 24 15H26C26.2833 15 26.5208 15.0958 26.7125 15.2875C26.9042 15.4792 27 15.7167 27 16V24C27 24.2833 26.9042 24.5208 26.7125 24.7125C26.5208 24.9042 26.2833 25 26 25Z" fill="#6D8D0C"/>
</svg>
