<svg width="20" height="20" viewBox="0 0 20 20" fill="none" xmlns="http://www.w3.org/2000/svg">
<path d="M16.25 13.75C16.25 15.4833 15.6417 16.9583 14.425 18.175C13.2083 19.3917 11.7333 20 10 20C8.26667 20 6.79167 19.3917 5.575 18.175C4.35833 16.9583 3.75 15.4833 3.75 13.75V4.5C3.75 3.25 4.1875 2.1875 5.0625 1.3125C5.9375 0.4375 7 0 8.25 0C9.5 0 10.5625 0.4375 11.4375 1.3125C12.3125 2.1875 12.75 3.25 12.75 4.5V13.25C12.75 14.0167 12.4833 14.6667 11.95 15.2C11.4167 15.7333 10.7667 16 10 16C9.23333 16 8.58333 15.7333 8.05 15.2C7.51667 14.6667 7.25 14.0167 7.25 13.25V5C7.25 4.71667 7.34583 4.47917 7.5375 4.2875C7.72917 4.09583 7.96667 4 8.25 4C8.53333 4 8.77083 4.09583 8.9625 4.2875C9.15417 4.47917 9.25 4.71667 9.25 5V13.25C9.25 13.4667 9.32083 13.6458 9.4625 13.7875C9.60417 13.9292 9.78333 14 10 14C10.2167 14 10.3958 13.9292 10.5375 13.7875C10.6792 13.6458 10.75 13.4667 10.75 13.25V4.5C10.7333 3.8 10.4875 3.20833 10.0125 2.725C9.5375 2.24167 8.95 2 8.25 2C7.55 2 6.95833 2.24167 6.475 2.725C5.99167 3.20833 5.75 3.8 5.75 4.5V13.75C5.73333 14.9333 6.14167 15.9375 6.975 16.7625C7.80833 17.5875 8.81667 18 10 18C11.1667 18 12.1583 17.5875 12.975 16.7625C13.7917 15.9375 14.2167 14.9333 14.25 13.75V5C14.25 4.71667 14.3458 4.47917 14.5375 4.2875C14.7292 4.09583 14.9667 4 15.25 4C15.5333 4 15.7708 4.09583 15.9625 4.2875C16.1542 4.47917 16.25 4.71667 16.25 5V13.75Z" fill="#595959"/>
</svg>
