<svg width="40" height="40" viewBox="0 0 40 40" fill="none" xmlns="http://www.w3.org/2000/svg">
<rect x="0.5" y="0.5" width="39" height="39" rx="5.5" fill="#6c7693"/>
<rect x="0.5" y="0.5" width="39" height="39" rx="5.5" stroke="#6c7693"/>
<path d="M26.25 23.75C26.25 25.4833 25.6417 26.9583 24.425 28.175C23.2083 29.3917 21.7333 30 20 30C18.2667 30 16.7917 29.3917 15.575 28.175C14.3583 26.9583 13.75 25.4833 13.75 23.75V14.5C13.75 13.25 14.1875 12.1875 15.0625 11.3125C15.9375 10.4375 17 10 18.25 10C19.5 10 20.5625 10.4375 21.4375 11.3125C22.3125 12.1875 22.75 13.25 22.75 14.5V23.25C22.75 24.0167 22.4833 24.6667 21.95 25.2C21.4167 25.7333 20.7667 26 20 26C19.2333 26 18.5833 25.7333 18.05 25.2C17.5167 24.6667 17.25 24.0167 17.25 23.25V15C17.25 14.7167 17.3458 14.4792 17.5375 14.2875C17.7292 14.0958 17.9667 14 18.25 14C18.5333 14 18.7708 14.0958 18.9625 14.2875C19.1542 14.4792 19.25 14.7167 19.25 15V23.25C19.25 23.4667 19.3208 23.6458 19.4625 23.7875C19.6042 23.9292 19.7833 24 20 24C20.2167 24 20.3958 23.9292 20.5375 23.7875C20.6792 23.6458 20.75 23.4667 20.75 23.25V14.5C20.7333 13.8 20.4875 13.2083 20.0125 12.725C19.5375 12.2417 18.95 12 18.25 12C17.55 12 16.9583 12.2417 16.475 12.725C15.9917 13.2083 15.75 13.8 15.75 14.5V23.75C15.7333 24.9333 16.1417 25.9375 16.975 26.7625C17.8083 27.5875 18.8167 28 20 28C21.1667 28 22.1583 27.5875 22.975 26.7625C23.7917 25.9375 24.2167 24.9333 24.25 23.75V15C24.25 14.7167 24.3458 14.4792 24.5375 14.2875C24.7292 14.0958 24.9667 14 25.25 14C25.5333 14 25.7708 14.0958 25.9625 14.2875C26.1542 14.4792 26.25 14.7167 26.25 15V23.75Z" fill="#21232c"/>
</svg>
