<svg width="40" height="40" viewBox="0 0 40 40" fill="none" xmlns="http://www.w3.org/2000/svg">
<rect x="0.5" y="0.5" width="39" height="39" rx="5.5" fill="#6c7693"/>
<rect x="0.5" y="0.5" width="39" height="39" rx="5.5" stroke="#6c7693"/>
<path d="M12 25C11.7167 25 11.4792 24.9042 11.2875 24.7125C11.0958 24.5208 11 24.2833 11 24V16C11 15.7167 11.0958 15.4792 11.2875 15.2875C11.4792 15.0958 11.7167 15 12 15C12.2833 15 12.5208 15.0958 12.7125 15.2875C12.9042 15.4792 13 15.7167 13 16V19H17V16C17 15.7167 17.0958 15.4792 17.2875 15.2875C17.4792 15.0958 17.7167 15 18 15C18.2833 15 18.5208 15.0958 18.7125 15.2875C18.9042 15.4792 19 15.7167 19 16V24C19 24.2833 18.9042 24.5208 18.7125 24.7125C18.5208 24.9042 18.2833 25 18 25C17.7167 25 17.4792 24.9042 17.2875 24.7125C17.0958 24.5208 17 24.2833 17 24V21H13V24C13 24.2833 12.9042 24.5208 12.7125 24.7125C12.5208 24.9042 12.2833 25 12 25ZM22 25C21.7167 25 21.4792 24.9042 21.2875 24.7125C21.0958 24.5208 21 24.2833 21 24V21C21 20.45 21.1958 19.9792 21.5875 19.5875C21.9792 19.1958 22.45 19 23 19H27V17H22C21.7167 17 21.4792 16.9042 21.2875 16.7125C21.0958 16.5208 21 16.2833 21 16C21 15.7167 21.0958 15.4792 21.2875 15.2875C21.4792 15.0958 21.7167 15 22 15H27C27.55 15 28.0208 15.1958 28.4125 15.5875C28.8042 15.9792 29 16.45 29 17V19C29 19.55 28.8042 20.0208 28.4125 20.4125C28.0208 20.8042 27.55 21 27 21H23V23H28C28.2833 23 28.5208 23.0958 28.7125 23.2875C28.9042 23.4792 29 23.7167 29 24C29 24.2833 28.9042 24.5208 28.7125 24.7125C28.5208 24.9042 28.2833 25 28 25H22Z" fill="#21232c"/>
</svg>
