<svg width="20" height="20" viewBox="0 0 20 20" fill="none" xmlns="http://www.w3.org/2000/svg">
<path d="M3 19C2.45 19 1.97917 18.8042 1.5875 18.4125C1.19583 18.0208 1 17.55 1 17V3C1 2.45 1.19583 1.97917 1.5875 1.5875C1.97917 1.19583 2.45 1 3 1H17C17.55 1 18.0208 1.19583 18.4125 1.5875C18.8042 1.97917 19 2.45 19 3V17C19 17.55 18.8042 18.0208 18.4125 18.4125C18.0208 18.8042 17.55 19 17 19H3ZM3 17H17V3H3V17ZM5 15H15C15.2 15 15.35 14.9083 15.45 14.725C15.55 14.5417 15.5333 14.3667 15.4 14.2L12.65 10.525C12.55 10.3917 12.4167 10.325 12.25 10.325C12.0833 10.325 11.95 10.3917 11.85 10.525L9.25 14L7.4 11.525C7.3 11.3917 7.16667 11.325 7 11.325C6.83333 11.325 6.7 11.3917 6.6 11.525L4.6 14.2C4.46667 14.3667 4.45 14.5417 4.55 14.725C4.65 14.9083 4.8 15 5 15Z" fill="#595959"/>
</svg>
