<svg width="40" height="40" viewBox="0 0 40 40" fill="none" xmlns="http://www.w3.org/2000/svg">
<rect x="0.5" y="0.5" width="39" height="39" rx="5.5" fill="#F8FDE7"/>
<rect x="0.5" y="0.5" width="39" height="39" rx="5.5" stroke="#F8FDE7"/>
<path d="M13 29C12.45 29 11.9792 28.8042 11.5875 28.4125C11.1958 28.0208 11 27.55 11 27V13C11 12.45 11.1958 11.9792 11.5875 11.5875C11.9792 11.1958 12.45 11 13 11H27C27.55 11 28.0208 11.1958 28.4125 11.5875C28.8042 11.9792 29 12.45 29 13V27C29 27.55 28.8042 28.0208 28.4125 28.4125C28.0208 28.8042 27.55 29 27 29H13ZM13 27H27V13H13V27ZM15 25H25C25.2 25 25.35 24.9083 25.45 24.725C25.55 24.5417 25.5333 24.3667 25.4 24.2L22.65 20.525C22.55 20.3917 22.4167 20.325 22.25 20.325C22.0833 20.325 21.95 20.3917 21.85 20.525L19.25 24L17.4 21.525C17.3 21.3917 17.1667 21.325 17 21.325C16.8333 21.325 16.7 21.3917 16.6 21.525L14.6 24.2C14.4667 24.3667 14.45 24.5417 14.55 24.725C14.65 24.9083 14.8 25 15 25Z" fill="#6D8D0C"/>
</svg>
