<svg width="40" height="40" viewBox="0 0 40 40" fill="none" xmlns="http://www.w3.org/2000/svg">
<rect x="0.5" y="0.5" width="39" height="39" rx="5.5" fill="#6c7693"/>
<rect x="0.5" y="0.5" width="39" height="39" rx="5.5" stroke="#6c7693"/>
<path d="M15 25C13.6167 25 12.4375 24.5125 11.4625 23.5375C10.4875 22.5625 10 21.3833 10 20C10 18.6167 10.4875 17.4375 11.4625 16.4625C12.4375 15.4875 13.6167 15 15 15H18C18.2833 15 18.5208 15.0958 18.7125 15.2875C18.9042 15.4792 19 15.7167 19 16C19 16.2833 18.9042 16.5208 18.7125 16.7125C18.5208 16.9042 18.2833 17 18 17H15C14.1667 17 13.4583 17.2917 12.875 17.875C12.2917 18.4583 12 19.1667 12 20C12 20.8333 12.2917 21.5417 12.875 22.125C13.4583 22.7083 14.1667 23 15 23H18C18.2833 23 18.5208 23.0958 18.7125 23.2875C18.9042 23.4792 19 23.7167 19 24C19 24.2833 18.9042 24.5208 18.7125 24.7125C18.5208 24.9042 18.2833 25 18 25H15ZM17 21C16.7167 21 16.4792 20.9042 16.2875 20.7125C16.0958 20.5208 16 20.2833 16 20C16 19.7167 16.0958 19.4792 16.2875 19.2875C16.4792 19.0958 16.7167 19 17 19H23C23.2833 19 23.5208 19.0958 23.7125 19.2875C23.9042 19.4792 24 19.7167 24 20C24 20.2833 23.9042 20.5208 23.7125 20.7125C23.5208 20.9042 23.2833 21 23 21H17ZM22 25C21.7167 25 21.4792 24.9042 21.2875 24.7125C21.0958 24.5208 21 24.2833 21 24C21 23.7167 21.0958 23.4792 21.2875 23.2875C21.4792 23.0958 21.7167 23 22 23H25C25.8333 23 26.5417 22.7083 27.125 22.125C27.7083 21.5417 28 20.8333 28 20C28 19.1667 27.7083 18.4583 27.125 17.875C26.5417 17.2917 25.8333 17 25 17H22C21.7167 17 21.4792 16.9042 21.2875 16.7125C21.0958 16.5208 21 16.2833 21 16C21 15.7167 21.0958 15.4792 21.2875 15.2875C21.4792 15.0958 21.7167 15 22 15H25C26.3833 15 27.5625 15.4875 28.5375 16.4625C29.5125 17.4375 30 18.6167 30 20C30 21.3833 29.5125 22.5625 28.5375 23.5375C27.5625 24.5125 26.3833 25 25 25H22Z" fill="#21232c"/>
</svg>
