<svg width="20" height="20" viewBox="0 0 20 20" fill="none" xmlns="http://www.w3.org/2000/svg">
<path d="M5 15C3.61667 15 2.4375 14.5125 1.4625 13.5375C0.4875 12.5625 0 11.3833 0 10C0 8.61667 0.4875 7.4375 1.4625 6.4625C2.4375 5.4875 3.61667 5 5 5H8C8.28333 5 8.52083 5.09583 8.7125 5.2875C8.90417 5.47917 9 5.71667 9 6C9 6.28333 8.90417 6.52083 8.7125 6.7125C8.52083 6.90417 8.28333 7 8 7H5C4.16667 7 3.45833 7.29167 2.875 7.875C2.29167 8.45833 2 9.16667 2 10C2 10.8333 2.29167 11.5417 2.875 12.125C3.45833 12.7083 4.16667 13 5 13H8C8.28333 13 8.52083 13.0958 8.7125 13.2875C8.90417 13.4792 9 13.7167 9 14C9 14.2833 8.90417 14.5208 8.7125 14.7125C8.52083 14.9042 8.28333 15 8 15H5ZM7 11C6.71667 11 6.47917 10.9042 6.2875 10.7125C6.09583 10.5208 6 10.2833 6 10C6 9.71667 6.09583 9.47917 6.2875 9.2875C6.47917 9.09583 6.71667 9 7 9H13C13.2833 9 13.5208 9.09583 13.7125 9.2875C13.9042 9.47917 14 9.71667 14 10C14 10.2833 13.9042 10.5208 13.7125 10.7125C13.5208 10.9042 13.2833 11 13 11H7ZM12 15C11.7167 15 11.4792 14.9042 11.2875 14.7125C11.0958 14.5208 11 14.2833 11 14C11 13.7167 11.0958 13.4792 11.2875 13.2875C11.4792 13.0958 11.7167 13 12 13H15C15.8333 13 16.5417 12.7083 17.125 12.125C17.7083 11.5417 18 10.8333 18 10C18 9.16667 17.7083 8.45833 17.125 7.875C16.5417 7.29167 15.8333 7 15 7H12C11.7167 7 11.4792 6.90417 11.2875 6.7125C11.0958 6.52083 11 6.28333 11 6C11 5.71667 11.0958 5.47917 11.2875 5.2875C11.4792 5.09583 11.7167 5 12 5H15C16.3833 5 17.5625 5.4875 18.5375 6.4625C19.5125 7.4375 20 8.61667 20 10C20 11.3833 19.5125 12.5625 18.5375 13.5375C17.5625 14.5125 16.3833 15 15 15H12Z" fill="#595959"/>
</svg>
