<svg width="24" height="24" viewBox="0 0 24 24" fill="none" xmlns="http://www.w3.org/2000/svg">
<rect x="0.5" y="0.5" width="23" height="23" rx="3.5" fill="#F8FDE7"/>
<rect x="0.5" y="0.5" width="23" height="23" rx="3.5" stroke="#F8FDE7"/>
<path d="M9.33333 10.0001C9.14444 10.0001 8.98611 9.93619 8.85833 9.80841C8.73056 9.68064 8.66667 9.5223 8.66667 9.33341C8.66667 9.14453 8.73056 8.98619 8.85833 8.85841C8.98611 8.73064 9.14444 8.66675 9.33333 8.66675H17.3333C17.5222 8.66675 17.6806 8.73064 17.8083 8.85841C17.9361 8.98619 18 9.14453 18 9.33341C18 9.5223 17.9361 9.68064 17.8083 9.80841C17.6806 9.93619 17.5222 10.0001 17.3333 10.0001H9.33333ZM9.33333 12.6667C9.14444 12.6667 8.98611 12.6029 8.85833 12.4751C8.73056 12.3473 8.66667 12.189 8.66667 12.0001C8.66667 11.8112 8.73056 11.6529 8.85833 11.5251C8.98611 11.3973 9.14444 11.3334 9.33333 11.3334H17.3333C17.5222 11.3334 17.6806 11.3973 17.8083 11.5251C17.9361 11.6529 18 11.8112 18 12.0001C18 12.189 17.9361 12.3473 17.8083 12.4751C17.6806 12.6029 17.5222 12.6667 17.3333 12.6667H9.33333ZM9.33333 15.3334C9.14444 15.3334 8.98611 15.2695 8.85833 15.1417C8.73056 15.014 8.66667 14.8556 8.66667 14.6667C8.66667 14.4779 8.73056 14.3195 8.85833 14.1917C8.98611 14.064 9.14444 14.0001 9.33333 14.0001H17.3333C17.5222 14.0001 17.6806 14.064 17.8083 14.1917C17.9361 14.3195 18 14.4779 18 14.6667C18 14.8556 17.9361 15.014 17.8083 15.1417C17.6806 15.2695 17.5222 15.3334 17.3333 15.3334H9.33333ZM6.66667 10.0001C6.47778 10.0001 6.31944 9.93619 6.19167 9.80841C6.06389 9.68064 6 9.5223 6 9.33341C6 9.14453 6.06389 8.98619 6.19167 8.85841C6.31944 8.73064 6.47778 8.66675 6.66667 8.66675C6.85556 8.66675 7.01389 8.73064 7.14167 8.85841C7.26944 8.98619 7.33333 9.14453 7.33333 9.33341C7.33333 9.5223 7.26944 9.68064 7.14167 9.80841C7.01389 9.93619 6.85556 10.0001 6.66667 10.0001ZM6.66667 12.6667C6.47778 12.6667 6.31944 12.6029 6.19167 12.4751C6.06389 12.3473 6 12.189 6 12.0001C6 11.8112 6.06389 11.6529 6.19167 11.5251C6.31944 11.3973 6.47778 11.3334 6.66667 11.3334C6.85556 11.3334 7.01389 11.3973 7.14167 11.5251C7.26944 11.6529 7.33333 11.8112 7.33333 12.0001C7.33333 12.189 7.26944 12.3473 7.14167 12.4751C7.01389 12.6029 6.85556 12.6667 6.66667 12.6667ZM6.66667 15.3334C6.47778 15.3334 6.31944 15.2695 6.19167 15.1417C6.06389 15.014 6 14.8556 6 14.6667C6 14.4779 6.06389 14.3195 6.19167 14.1917C6.31944 14.064 6.47778 14.0001 6.66667 14.0001C6.85556 14.0001 7.01389 14.064 7.14167 14.1917C7.26944 14.3195 7.33333 14.4779 7.33333 14.6667C7.33333 14.8556 7.26944 15.014 7.14167 15.1417C7.01389 15.2695 6.85556 15.3334 6.66667 15.3334Z" fill="#6D8D0C"/>
</svg>
