<svg width="24" height="24" viewBox="0 0 24 24" fill="none" xmlns="http://www.w3.org/2000/svg">
<rect x="0.5" y="0.5" width="23" height="23" rx="3.5" fill="#6c7693"/>
<rect x="0.5" y="0.5" width="23" height="23" rx="3.5" stroke="#6c7693"/>
<path d="M8.79474 10.1206L11.1474 6.29882C11.2105 6.19397 11.2895 6.11796 11.3842 6.07077C11.4789 6.02359 11.5789 6 11.6842 6C11.7895 6 11.8895 6.02359 11.9842 6.07077C12.0789 6.11796 12.1579 6.19397 12.2211 6.29882L14.5737 10.1206C14.6368 10.2254 14.6684 10.3355 14.6684 10.4509C14.6684 10.5662 14.6421 10.671 14.5895 10.7654C14.5368 10.8598 14.4632 10.9358 14.3684 10.9934C14.2737 11.0511 14.1632 11.0799 14.0368 11.0799H9.33158C9.20526 11.0799 9.09474 11.0511 9 10.9934C8.90526 10.9358 8.83158 10.8598 8.77895 10.7654C8.72632 10.671 8.7 10.5662 8.7 10.4509C8.7 10.3355 8.73158 10.2254 8.79474 10.1206ZM15.1579 18C14.3684 18 13.6974 17.7248 13.1447 17.1743C12.5921 16.6239 12.3158 15.9554 12.3158 15.1691C12.3158 14.3827 12.5921 13.7143 13.1447 13.1638C13.6974 12.6134 14.3684 12.3381 15.1579 12.3381C15.9474 12.3381 16.6184 12.6134 17.1711 13.1638C17.7237 13.7143 18 14.3827 18 15.1691C18 15.9554 17.7237 16.6239 17.1711 17.1743C16.6184 17.7248 15.9474 18 15.1579 18ZM6 17.0564V13.2818C6 13.1035 6.06053 12.9541 6.18158 12.8336C6.30263 12.713 6.45263 12.6527 6.63158 12.6527H10.4211C10.6 12.6527 10.75 12.713 10.8711 12.8336C10.9921 12.9541 11.0526 13.1035 11.0526 13.2818V17.0564C11.0526 17.2346 10.9921 17.384 10.8711 17.5046C10.75 17.6252 10.6 17.6855 10.4211 17.6855H6.63158C6.45263 17.6855 6.30263 17.6252 6.18158 17.5046C6.06053 17.384 6 17.2346 6 17.0564ZM15.1579 16.7418C15.6 16.7418 15.9737 16.5898 16.2789 16.2857C16.5842 15.9817 16.7368 15.6094 16.7368 15.1691C16.7368 14.7287 16.5842 14.3565 16.2789 14.0524C15.9737 13.7484 15.6 13.5963 15.1579 13.5963C14.7158 13.5963 14.3421 13.7484 14.0368 14.0524C13.7316 14.3565 13.5789 14.7287 13.5789 15.1691C13.5789 15.6094 13.7316 15.9817 14.0368 16.2857C14.3421 16.5898 14.7158 16.7418 15.1579 16.7418ZM7.26316 16.4273H9.78947V13.9109H7.26316V16.4273ZM10.4526 9.82176H12.9158L11.6842 7.8401L10.4526 9.82176Z" fill="#6D8D0C"/>
</svg>
