<svg width="20" height="20" viewBox="0 0 20 20" fill="none" xmlns="http://www.w3.org/2000/svg">
<path d="M1.75 20C1.53333 20 1.35417 19.9292 1.2125 19.7875C1.07083 19.6458 1 19.4667 1 19.25C1 19.0333 1.07083 18.8542 1.2125 18.7125C1.35417 18.5708 1.53333 18.5 1.75 18.5H3.5V17.75H2.75C2.53333 17.75 2.35417 17.6792 2.2125 17.5375C2.07083 17.3958 2 17.2167 2 17C2 16.7833 2.07083 16.6042 2.2125 16.4625C2.35417 16.3208 2.53333 16.25 2.75 16.25H3.5V15.5H1.75C1.53333 15.5 1.35417 15.4292 1.2125 15.2875C1.07083 15.1458 1 14.9667 1 14.75C1 14.5333 1.07083 14.3542 1.2125 14.2125C1.35417 14.0708 1.53333 14 1.75 14H4C4.28333 14 4.52083 14.0958 4.7125 14.2875C4.90417 14.4792 5 14.7167 5 15V16C5 16.2833 4.90417 16.5208 4.7125 16.7125C4.52083 16.9042 4.28333 17 4 17C4.28333 17 4.52083 17.0958 4.7125 17.2875C4.90417 17.4792 5 17.7167 5 18V19C5 19.2833 4.90417 19.5208 4.7125 19.7125C4.52083 19.9042 4.28333 20 4 20H1.75ZM1.75 13C1.53333 13 1.35417 12.9292 1.2125 12.7875C1.07083 12.6458 1 12.4667 1 12.25V10.25C1 9.96667 1.09583 9.72917 1.2875 9.5375C1.47917 9.34583 1.71667 9.25 2 9.25H3.5V8.5H1.75C1.53333 8.5 1.35417 8.42917 1.2125 8.2875C1.07083 8.14583 1 7.96667 1 7.75C1 7.53333 1.07083 7.35417 1.2125 7.2125C1.35417 7.07083 1.53333 7 1.75 7H4C4.28333 7 4.52083 7.09583 4.7125 7.2875C4.90417 7.47917 5 7.71667 5 8V9.75C5 10.0333 4.90417 10.2708 4.7125 10.4625C4.52083 10.6542 4.28333 10.75 4 10.75H2.5V11.5H4.25C4.46667 11.5 4.64583 11.5708 4.7875 11.7125C4.92917 11.8542 5 12.0333 5 12.25C5 12.4667 4.92917 12.6458 4.7875 12.7875C4.64583 12.9292 4.46667 13 4.25 13H1.75ZM3.25 6C3.03333 6 2.85417 5.92917 2.7125 5.7875C2.57083 5.64583 2.5 5.46667 2.5 5.25V1.5H1.75C1.53333 1.5 1.35417 1.42917 1.2125 1.2875C1.07083 1.14583 1 0.966667 1 0.75C1 0.533333 1.07083 0.354167 1.2125 0.2125C1.35417 0.0708333 1.53333 0 1.75 0H3.25C3.46667 0 3.64583 0.0708333 3.7875 0.2125C3.92917 0.354167 4 0.533333 4 0.75V5.25C4 5.46667 3.92917 5.64583 3.7875 5.7875C3.64583 5.92917 3.46667 6 3.25 6ZM8 17C7.71667 17 7.47917 16.9042 7.2875 16.7125C7.09583 16.5208 7 16.2833 7 16C7 15.7167 7.09583 15.4792 7.2875 15.2875C7.47917 15.0958 7.71667 15 8 15H18C18.2833 15 18.5208 15.0958 18.7125 15.2875C18.9042 15.4792 19 15.7167 19 16C19 16.2833 18.9042 16.5208 18.7125 16.7125C18.5208 16.9042 18.2833 17 18 17H8ZM8 11C7.71667 11 7.47917 10.9042 7.2875 10.7125C7.09583 10.5208 7 10.2833 7 10C7 9.71667 7.09583 9.47917 7.2875 9.2875C7.47917 9.09583 7.71667 9 8 9H18C18.2833 9 18.5208 9.09583 18.7125 9.2875C18.9042 9.47917 19 9.71667 19 10C19 10.2833 18.9042 10.5208 18.7125 10.7125C18.5208 10.9042 18.2833 11 18 11H8ZM8 5C7.71667 5 7.47917 4.90417 7.2875 4.7125C7.09583 4.52083 7 4.28333 7 4C7 3.71667 7.09583 3.47917 7.2875 3.2875C7.47917 3.09583 7.71667 3 8 3H18C18.2833 3 18.5208 3.09583 18.7125 3.2875C18.9042 3.47917 19 3.71667 19 4C19 4.28333 18.9042 4.52083 18.7125 4.7125C18.5208 4.90417 18.2833 5 18 5H8Z" fill="#595959"/>
</svg>
