<svg width="40" height="40" viewBox="0 0 40 40" fill="none" xmlns="http://www.w3.org/2000/svg">
<rect x="0.5" y="0.5" width="39" height="39" rx="5.5" fill="#6c7693"/>
<rect x="0.5" y="0.5" width="39" height="39" rx="5.5" stroke="#6c7693"/>
<path d="M11.75 30C11.5333 30 11.3542 29.9292 11.2125 29.7875C11.0708 29.6458 11 29.4667 11 29.25C11 29.0333 11.0708 28.8542 11.2125 28.7125C11.3542 28.5708 11.5333 28.5 11.75 28.5H13.5V27.75H12.75C12.5333 27.75 12.3542 27.6792 12.2125 27.5375C12.0708 27.3958 12 27.2167 12 27C12 26.7833 12.0708 26.6042 12.2125 26.4625C12.3542 26.3208 12.5333 26.25 12.75 26.25H13.5V25.5H11.75C11.5333 25.5 11.3542 25.4292 11.2125 25.2875C11.0708 25.1458 11 24.9667 11 24.75C11 24.5333 11.0708 24.3542 11.2125 24.2125C11.3542 24.0708 11.5333 24 11.75 24H14C14.2833 24 14.5208 24.0958 14.7125 24.2875C14.9042 24.4792 15 24.7167 15 25V26C15 26.2833 14.9042 26.5208 14.7125 26.7125C14.5208 26.9042 14.2833 27 14 27C14.2833 27 14.5208 27.0958 14.7125 27.2875C14.9042 27.4792 15 27.7167 15 28V29C15 29.2833 14.9042 29.5208 14.7125 29.7125C14.5208 29.9042 14.2833 30 14 30H11.75ZM11.75 23C11.5333 23 11.3542 22.9292 11.2125 22.7875C11.0708 22.6458 11 22.4667 11 22.25V20.25C11 19.9667 11.0958 19.7292 11.2875 19.5375C11.4792 19.3458 11.7167 19.25 12 19.25H13.5V18.5H11.75C11.5333 18.5 11.3542 18.4292 11.2125 18.2875C11.0708 18.1458 11 17.9667 11 17.75C11 17.5333 11.0708 17.3542 11.2125 17.2125C11.3542 17.0708 11.5333 17 11.75 17H14C14.2833 17 14.5208 17.0958 14.7125 17.2875C14.9042 17.4792 15 17.7167 15 18V19.75C15 20.0333 14.9042 20.2708 14.7125 20.4625C14.5208 20.6542 14.2833 20.75 14 20.75H12.5V21.5H14.25C14.4667 21.5 14.6458 21.5708 14.7875 21.7125C14.9292 21.8542 15 22.0333 15 22.25C15 22.4667 14.9292 22.6458 14.7875 22.7875C14.6458 22.9292 14.4667 23 14.25 23H11.75ZM13.25 16C13.0333 16 12.8542 15.9292 12.7125 15.7875C12.5708 15.6458 12.5 15.4667 12.5 15.25V11.5H11.75C11.5333 11.5 11.3542 11.4292 11.2125 11.2875C11.0708 11.1458 11 10.9667 11 10.75C11 10.5333 11.0708 10.3542 11.2125 10.2125C11.3542 10.0708 11.5333 10 11.75 10H13.25C13.4667 10 13.6458 10.0708 13.7875 10.2125C13.9292 10.3542 14 10.5333 14 10.75V15.25C14 15.4667 13.9292 15.6458 13.7875 15.7875C13.6458 15.9292 13.4667 16 13.25 16ZM18 27C17.7167 27 17.4792 26.9042 17.2875 26.7125C17.0958 26.5208 17 26.2833 17 26C17 25.7167 17.0958 25.4792 17.2875 25.2875C17.4792 25.0958 17.7167 25 18 25H28C28.2833 25 28.5208 25.0958 28.7125 25.2875C28.9042 25.4792 29 25.7167 29 26C29 26.2833 28.9042 26.5208 28.7125 26.7125C28.5208 26.9042 28.2833 27 28 27H18ZM18 21C17.7167 21 17.4792 20.9042 17.2875 20.7125C17.0958 20.5208 17 20.2833 17 20C17 19.7167 17.0958 19.4792 17.2875 19.2875C17.4792 19.0958 17.7167 19 18 19H28C28.2833 19 28.5208 19.0958 28.7125 19.2875C28.9042 19.4792 29 19.7167 29 20C29 20.2833 28.9042 20.5208 28.7125 20.7125C28.5208 20.9042 28.2833 21 28 21H18ZM18 15C17.7167 15 17.4792 14.9042 17.2875 14.7125C17.0958 14.5208 17 14.2833 17 14C17 13.7167 17.0958 13.4792 17.2875 13.2875C17.4792 13.0958 17.7167 13 18 13H28C28.2833 13 28.5208 13.0958 28.7125 13.2875C28.9042 13.4792 29 13.7167 29 14C29 14.2833 28.9042 14.5208 28.7125 14.7125C28.5208 14.9042 28.2833 15 28 15H18Z" fill="#21232c"/>
</svg>
