<svg width="20" height="20" viewBox="0 0 20 20" fill="none" xmlns="http://www.w3.org/2000/svg">
<path d="M3.86998 12.7729L3.15473 14.7434C3.07856 14.9551 2.9514 15.1227 2.77323 15.2462C2.5949 15.3697 2.39523 15.4314 2.17423 15.4314C1.80106 15.4314 1.51048 15.2788 1.30248 14.9734C1.09448 14.6679 1.05356 14.3453 1.17973 14.0054L4.50248 5.04569C4.57865 4.82469 4.71473 4.64586 4.91073 4.50919C5.10673 4.37269 5.31998 4.30444 5.55048 4.30444H6.37748C6.60798 4.30444 6.82306 4.37036 7.02273 4.50219C7.2224 4.63403 7.36023 4.81044 7.43623 5.03144L10.7872 14.0304C10.9134 14.3703 10.8731 14.6888 10.6662 14.9859C10.4592 15.2829 10.1728 15.4314 9.80698 15.4314C9.58598 15.4314 9.38398 15.3655 9.20098 15.2337C9.01798 15.1019 8.8884 14.9301 8.81223 14.7184L8.12198 12.7729H3.86998ZM4.50148 10.8337H7.43723L6.00698 6.73594H5.92098L4.50148 10.8337ZM14.6167 15.6957C13.7667 15.6957 13.0752 15.45 12.5422 14.9587C12.0092 14.4674 11.7427 13.8373 11.7427 13.0684C11.7427 12.2974 12.042 11.6674 12.6405 11.1782C13.2391 10.689 14.0167 10.4444 14.9732 10.4444C15.3566 10.4444 15.7268 10.4778 16.084 10.5444C16.4413 10.6111 16.7391 10.7075 16.9775 10.8337V10.3924C16.9775 9.99378 16.8185 9.66094 16.5005 9.39394C16.1823 9.12694 15.787 8.99344 15.3145 8.99344C15.0833 8.99344 14.8587 9.02628 14.6407 9.09194C14.4226 9.15744 14.2181 9.24636 14.0275 9.35869C13.745 9.51586 13.4961 9.55769 13.2807 9.48419C13.0656 9.41069 12.895 9.28844 12.769 9.11744C12.6428 8.94644 12.5891 8.75278 12.608 8.53644C12.6268 8.32011 12.7421 8.14528 12.9537 8.01194C13.3152 7.76411 13.7114 7.58003 14.1422 7.45969C14.5731 7.33953 15.0098 7.27944 15.4525 7.27944C16.546 7.27944 17.3926 7.56911 17.9922 8.14844C18.5919 8.72778 18.8917 9.53553 18.8917 10.5717V14.6282C18.8917 14.892 18.7984 15.1154 18.6117 15.2984C18.4252 15.4814 18.2001 15.5729 17.9362 15.5729C17.6724 15.5729 17.4466 15.4796 17.259 15.2929C17.0713 15.1063 16.9775 14.8858 16.9775 14.6314V14.5772H16.8917C16.6772 14.9322 16.3652 15.2074 15.9557 15.4027C15.5464 15.598 15.1001 15.6957 14.6167 15.6957ZM15.058 14.0912C15.5941 14.0912 16.05 13.91 16.4255 13.5477C16.8008 13.1855 16.9885 12.7519 16.9885 12.2467C16.8021 12.1417 16.5724 12.0634 16.2992 12.0119C16.0261 11.9604 15.7265 11.9347 15.4005 11.9347C14.8671 11.9347 14.4599 12.0302 14.1787 12.2212C13.8976 12.4122 13.757 12.6852 13.757 13.0402C13.757 13.3452 13.8785 13.5966 14.1215 13.7944C14.3646 13.9923 14.6768 14.0912 15.058 14.0912Z" fill="#5F6368"/>
</svg>
