<svg width="40" height="40" viewBox="0 0 40 40" fill="none" xmlns="http://www.w3.org/2000/svg">
<rect x="0.5" y="0.5" width="39" height="39" rx="5.5" fill="#F8FDE7"/>
<rect x="0.5" y="0.5" width="39" height="39" rx="5.5" stroke="#F8FDE7"/>
<path d="M17.5 23.75C17.3333 23.75 17.1875 23.6875 17.0625 23.5625C16.9375 23.4375 16.875 23.2917 16.875 23.125V16.875C16.875 16.7083 16.9375 16.5625 17.0625 16.4375C17.1875 16.3125 17.3333 16.25 17.5 16.25H21.875C22.2292 16.25 22.526 16.3698 22.7656 16.6094C23.0052 16.849 23.125 17.1458 23.125 17.5V18.75C23.125 19.1042 23.0052 19.401 22.7656 19.6406C22.526 19.8802 22.2292 20 21.875 20C22.2292 20 22.526 20.1198 22.7656 20.3594C23.0052 20.599 23.125 20.8958 23.125 21.25V22.5C23.125 22.8542 23.0052 23.151 22.7656 23.3906C22.526 23.6302 22.2292 23.75 21.875 23.75H17.5ZM18.75 19.0625H21.25V18.125H18.75V19.0625ZM18.75 21.875H21.25V20.9375H18.75V21.875ZM9.6875 23.75C9.41667 23.75 9.19271 23.6615 9.01562 23.4844C8.83854 23.3073 8.75 23.0833 8.75 22.8125V17.5C8.75 17.1458 8.86979 16.849 9.10938 16.6094C9.34896 16.3698 9.64583 16.25 10 16.25H13.75C14.1042 16.25 14.401 16.3698 14.6406 16.6094C14.8802 16.849 15 17.1458 15 17.5V22.8125C15 23.0833 14.9115 23.3073 14.7344 23.4844C14.5573 23.6615 14.3333 23.75 14.0625 23.75C13.7917 23.75 13.5677 23.6615 13.3906 23.4844C13.2135 23.3073 13.125 23.0833 13.125 22.8125V21.875H10.625V22.8125C10.625 23.0833 10.5365 23.3073 10.3594 23.4844C10.1823 23.6615 9.95833 23.75 9.6875 23.75ZM10.625 20H13.125V18.125H10.625V20ZM26.25 23.75C25.8958 23.75 25.599 23.6302 25.3594 23.3906C25.1198 23.151 25 22.8542 25 22.5V17.5C25 17.1458 25.1198 16.849 25.3594 16.6094C25.599 16.3698 25.8958 16.25 26.25 16.25H30C30.3542 16.25 30.651 16.3698 30.8906 16.6094C31.1302 16.849 31.25 17.1458 31.25 17.5V18.125C31.25 18.3958 31.1615 18.6198 30.9844 18.7969C30.8073 18.974 30.5833 19.0625 30.3125 19.0625C30.0417 19.0625 29.8177 18.974 29.6406 18.7969C29.4635 18.6198 29.375 18.3958 29.375 18.125H26.875V21.875H29.375C29.375 21.6042 29.4635 21.3802 29.6406 21.2031C29.8177 21.026 30.0417 20.9375 30.3125 20.9375C30.5833 20.9375 30.8073 21.026 30.9844 21.2031C31.1615 21.3802 31.25 21.6042 31.25 21.875V22.5C31.25 22.8542 31.1302 23.151 30.8906 23.3906C30.651 23.6302 30.3542 23.75 30 23.75H26.25Z" fill="#6D8D0C"/>
</svg>
