<svg width="16" height="16" viewBox="0 0 16 16" fill="none" xmlns="http://www.w3.org/2000/svg">
<path d="M5.9175 11.835C4.26363 11.835 2.86392 11.2622 1.71835 10.1166C0.572783 8.97108 0 7.57136 0 5.9175C0 4.26363 0.572783 2.86392 1.71835 1.71835C2.86392 0.572783 4.26363 0 5.9175 0C7.57136 0 8.97108 0.572783 10.1166 1.71835C11.2622 2.86392 11.835 4.26363 11.835 5.9175C11.835 6.58511 11.7288 7.21479 11.5164 7.80654C11.3039 8.39829 11.0156 8.92176 10.6515 9.37696L15.7496 14.4751C15.9165 14.642 16 14.8544 16 15.1124C16 15.3703 15.9165 15.5827 15.7496 15.7496C15.5827 15.9165 15.3703 16 15.1124 16C14.8544 16 14.642 15.9165 14.4751 15.7496L9.37696 10.6515C8.92176 11.0156 8.39829 11.3039 7.80654 11.5164C7.21479 11.7288 6.58511 11.835 5.9175 11.835ZM5.9175 10.0142C7.05548 10.0142 8.02276 9.61593 8.81935 8.81935C9.61593 8.02276 10.0142 7.05548 10.0142 5.9175C10.0142 4.77952 9.61593 3.81223 8.81935 3.01565C8.02276 2.21906 7.05548 1.82077 5.9175 1.82077C4.77952 1.82077 3.81223 2.21906 3.01565 3.01565C2.21906 3.81223 1.82077 4.77952 1.82077 5.9175C1.82077 7.05548 2.21906 8.02276 3.01565 8.81935C3.81223 9.61593 4.77952 10.0142 5.9175 10.0142Z" fill="#595959"/>
</svg>
