<svg width="20" height="20" viewBox="0 0 20 20" fill="none" xmlns="http://www.w3.org/2000/svg">
<path d="M1.93425 15.1732C1.61509 15.1732 1.34567 15.0634 1.126 14.8439C0.906503 14.6244 0.796753 14.355 0.796753 14.0357V5.96416C0.796753 5.64483 0.906503 5.37541 1.126 5.15591C1.34567 4.93641 1.61509 4.82666 1.93425 4.82666C2.25342 4.82666 2.52284 4.93641 2.7425 5.15591C2.962 5.37541 3.07175 5.64483 3.07175 5.96416V8.86241H6.725V5.96416C6.725 5.64483 6.83475 5.37541 7.05425 5.15591C7.27392 4.93641 7.54334 4.82666 7.8625 4.82666C8.18167 4.82666 8.45109 4.93641 8.67075 5.15591C8.89025 5.37541 9 5.64483 9 5.96416V14.0357C9 14.355 8.89025 14.6244 8.67075 14.8439C8.45109 15.0634 8.18167 15.1732 7.8625 15.1732C7.54334 15.1732 7.27392 15.0634 7.05425 14.8439C6.83475 14.6244 6.725 14.355 6.725 14.0357V11.1374H3.07175V14.0357C3.07175 14.355 2.962 14.6244 2.7425 14.8439C2.52284 15.0634 2.25342 15.1732 1.93425 15.1732ZM12.1375 15.1732C11.8183 15.1732 11.5489 15.0634 11.3293 14.8439C11.1098 14.6244 11 14.355 11 14.0357C11 13.7165 11.1098 13.4472 11.3293 13.2277C11.5489 13.008 11.8183 12.8982 12.1375 12.8982H16.9283V11.1374H14.1375C13.8183 11.1374 13.5489 11.0277 13.3293 10.8082C13.1098 10.5885 13 10.3191 13 9.99991C13 9.68074 13.1098 9.41133 13.3293 9.19166C13.5489 8.97216 13.8183 8.86241 14.1375 8.86241H16.9283V7.10166H12.1375C11.8183 7.10166 11.5489 6.99183 11.3293 6.77216C11.1098 6.55266 11 6.28333 11 5.96416C11 5.64483 11.1098 5.37541 11.3293 5.15591C11.5489 4.93641 11.8183 4.82666 12.1375 4.82666H16.9283C17.5579 4.82666 18.0945 5.04833 18.538 5.49166C18.9815 5.93516 19.2033 6.47183 19.2033 7.10166V12.8982C19.2033 13.528 18.9815 14.0647 18.538 14.5082C18.0945 14.9515 17.5579 15.1732 16.9283 15.1732H12.1375Z" fill="#5F6368"/>
</svg>
