<svg width="40" height="40" viewBox="0 0 40 40" fill="none" xmlns="http://www.w3.org/2000/svg">
<rect x="0.5" y="0.5" width="39" height="39" rx="5.5" fill="#F8FDE7"/>
<rect x="0.5" y="0.5" width="39" height="39" rx="5.5" stroke="#F8FDE7"/>
<path d="M13 29C12.45 29 11.9792 28.8042 11.5875 28.4125C11.1958 28.0208 11 27.55 11 27V13C11 12.45 11.1958 11.9792 11.5875 11.5875C11.9792 11.1958 12.45 11 13 11H27C27.55 11 28.0208 11.1958 28.4125 11.5875C28.8042 11.9792 29 12.45 29 13V27C29 27.55 28.8042 28.0208 28.4125 28.4125C28.0208 28.8042 27.55 29 27 29H13ZM19 23H13V27H19V23ZM21 23V27H27V23H21ZM19 21V17H13V21H19ZM21 21H27V17H21V21ZM13 15H27V13H13V15Z" fill="#6D8D0C"/>
</svg>
