<svg width="20" height="20" viewBox="0 0 20 20" fill="none" xmlns="http://www.w3.org/2000/svg">
<path d="M3 19C2.45 19 1.97917 18.8042 1.5875 18.4125C1.19583 18.0208 1 17.55 1 17V3C1 2.45 1.19583 1.97917 1.5875 1.5875C1.97917 1.19583 2.45 1 3 1H17C17.55 1 18.0208 1.19583 18.4125 1.5875C18.8042 1.97917 19 2.45 19 3V17C19 17.55 18.8042 18.0208 18.4125 18.4125C18.0208 18.8042 17.55 19 17 19H3ZM9 13H3V17H9V13ZM11 13V17H17V13H11ZM9 11V7H3V11H9ZM11 11H17V7H11V11ZM3 5H17V3H3V5Z" fill="#595959"/>
</svg>
