<svg width="24" height="24" viewBox="0 0 24 24" fill="none" xmlns="http://www.w3.org/2000/svg">
<rect x="0" y="0" width="24" height="24" rx="3.5" fill="#F8FDE7"/>
<path d="M6.85714 18.375C6.61429 18.375 6.41071 18.2935 6.24643 18.1306C6.08214 17.9677 6 17.7658 6 17.525C6 17.2842 6.08214 17.0823 6.24643 16.9194C6.41071 16.7565 6.61429 16.675 6.85714 16.675H17.1429C17.3857 16.675 17.5893 16.7565 17.7536 16.9194C17.9179 17.0823 18 17.2842 18 17.525C18 17.7658 17.9179 17.9677 17.7536 18.1306C17.5893 18.2935 17.3857 18.375 17.1429 18.375H6.85714ZM8.01429 13.955L10.95 6.135C11.0071 5.97917 11.1036 5.85521 11.2393 5.76313C11.375 5.67104 11.5286 5.625 11.7 5.625H12.3C12.4714 5.625 12.625 5.67104 12.7607 5.76313C12.8964 5.85521 12.9929 5.97917 13.05 6.135L15.9857 13.9762C16.0714 14.2171 16.0429 14.4438 15.9 14.6562C15.7571 14.8688 15.5571 14.975 15.3 14.975C15.1429 14.975 14.9964 14.929 14.8607 14.8369C14.725 14.7448 14.6286 14.6208 14.5714 14.465L13.9286 12.595H10.1143L9.42857 14.4862C9.37143 14.6421 9.27857 14.7625 9.15 14.8475C9.02143 14.9325 8.87857 14.975 8.72143 14.975C8.45 14.975 8.23929 14.8652 8.08929 14.6456C7.93929 14.426 7.91429 14.1958 8.01429 13.955ZM10.5857 11.235H13.4143L12.0429 7.3675H11.9571L10.5857 11.235Z" fill="#6D8D0C"/>
</svg>
