<svg width="20" height="20" viewBox="0 0 20 20" fill="none" xmlns="http://www.w3.org/2000/svg">
<path d="M8 17C7.71667 17 7.47917 16.9042 7.2875 16.7125C7.09583 16.5208 7 16.2833 7 16C7 15.7167 7.09583 15.4792 7.2875 15.2875C7.47917 15.0958 7.71667 15 8 15H18C18.2833 15 18.5208 15.0958 18.7125 15.2875C18.9042 15.4792 19 15.7167 19 16C19 16.2833 18.9042 16.5208 18.7125 16.7125C18.5208 16.9042 18.2833 17 18 17H8ZM8 11C7.71667 11 7.47917 10.9042 7.2875 10.7125C7.09583 10.5208 7 10.2833 7 10C7 9.71667 7.09583 9.47917 7.2875 9.2875C7.47917 9.09583 7.71667 9 8 9H18C18.2833 9 18.5208 9.09583 18.7125 9.2875C18.9042 9.47917 19 9.71667 19 10C19 10.2833 18.9042 10.5208 18.7125 10.7125C18.5208 10.9042 18.2833 11 18 11H8ZM8 5C7.71667 5 7.47917 4.90417 7.2875 4.7125C7.09583 4.52083 7 4.28333 7 4C7 3.71667 7.09583 3.47917 7.2875 3.2875C7.47917 3.09583 7.71667 3 8 3H18C18.2833 3 18.5208 3.09583 18.7125 3.2875C18.9042 3.47917 19 3.71667 19 4C19 4.28333 18.9042 4.52083 18.7125 4.7125C18.5208 4.90417 18.2833 5 18 5H8ZM3 18C2.45 18 1.97917 17.8042 1.5875 17.4125C1.19583 17.0208 1 16.55 1 16C1 15.45 1.19583 14.9792 1.5875 14.5875C1.97917 14.1958 2.45 14 3 14C3.55 14 4.02083 14.1958 4.4125 14.5875C4.80417 14.9792 5 15.45 5 16C5 16.55 4.80417 17.0208 4.4125 17.4125C4.02083 17.8042 3.55 18 3 18ZM3 12C2.45 12 1.97917 11.8042 1.5875 11.4125C1.19583 11.0208 1 10.55 1 10C1 9.45 1.19583 8.97917 1.5875 8.5875C1.97917 8.19583 2.45 8 3 8C3.55 8 4.02083 8.19583 4.4125 8.5875C4.80417 8.97917 5 9.45 5 10C5 10.55 4.80417 11.0208 4.4125 11.4125C4.02083 11.8042 3.55 12 3 12ZM3 6C2.45 6 1.97917 5.80417 1.5875 5.4125C1.19583 5.02083 1 4.55 1 4C1 3.45 1.19583 2.97917 1.5875 2.5875C1.97917 2.19583 2.45 2 3 2C3.55 2 4.02083 2.19583 4.4125 2.5875C4.80417 2.97917 5 3.45 5 4C5 4.55 4.80417 5.02083 4.4125 5.4125C4.02083 5.80417 3.55 6 3 6Z" fill="#595959"/>
</svg>
