<svg width="40" height="40" viewBox="0 0 40 40" fill="none" xmlns="http://www.w3.org/2000/svg">
<rect x="0.5" y="0.5" width="39" height="39" rx="5.5" fill="#6c7693"/>
<rect x="0.5" y="0.5" width="39" height="39" rx="5.5" stroke="#6c7693"/>
<path d="M18 27C17.7167 27 17.4792 26.9042 17.2875 26.7125C17.0958 26.5208 17 26.2833 17 26C17 25.7167 17.0958 25.4792 17.2875 25.2875C17.4792 25.0958 17.7167 25 18 25H28C28.2833 25 28.5208 25.0958 28.7125 25.2875C28.9042 25.4792 29 25.7167 29 26C29 26.2833 28.9042 26.5208 28.7125 26.7125C28.5208 26.9042 28.2833 27 28 27H18ZM18 21C17.7167 21 17.4792 20.9042 17.2875 20.7125C17.0958 20.5208 17 20.2833 17 20C17 19.7167 17.0958 19.4792 17.2875 19.2875C17.4792 19.0958 17.7167 19 18 19H28C28.2833 19 28.5208 19.0958 28.7125 19.2875C28.9042 19.4792 29 19.7167 29 20C29 20.2833 28.9042 20.5208 28.7125 20.7125C28.5208 20.9042 28.2833 21 28 21H18ZM18 15C17.7167 15 17.4792 14.9042 17.2875 14.7125C17.0958 14.5208 17 14.2833 17 14C17 13.7167 17.0958 13.4792 17.2875 13.2875C17.4792 13.0958 17.7167 13 18 13H28C28.2833 13 28.5208 13.0958 28.7125 13.2875C28.9042 13.4792 29 13.7167 29 14C29 14.2833 28.9042 14.5208 28.7125 14.7125C28.5208 14.9042 28.2833 15 28 15H18ZM13 28C12.45 28 11.9792 27.8042 11.5875 27.4125C11.1958 27.0208 11 26.55 11 26C11 25.45 11.1958 24.9792 11.5875 24.5875C11.9792 24.1958 12.45 24 13 24C13.55 24 14.0208 24.1958 14.4125 24.5875C14.8042 24.9792 15 25.45 15 26C15 26.55 14.8042 27.0208 14.4125 27.4125C14.0208 27.8042 13.55 28 13 28ZM13 22C12.45 22 11.9792 21.8042 11.5875 21.4125C11.1958 21.0208 11 20.55 11 20C11 19.45 11.1958 18.9792 11.5875 18.5875C11.9792 18.1958 12.45 18 13 18C13.55 18 14.0208 18.1958 14.4125 18.5875C14.8042 18.9792 15 19.45 15 20C15 20.55 14.8042 21.0208 14.4125 21.4125C14.0208 21.8042 13.55 22 13 22ZM13 16C12.45 16 11.9792 15.8042 11.5875 15.4125C11.1958 15.0208 11 14.55 11 14C11 13.45 11.1958 12.9792 11.5875 12.5875C11.9792 12.1958 12.45 12 13 12C13.55 12 14.0208 12.1958 14.4125 12.5875C14.8042 12.9792 15 13.45 15 14C15 14.55 14.8042 15.0208 14.4125 15.4125C14.0208 15.8042 13.55 16 13 16Z" fill="#21232c"/>
</svg>
